M48
;GenerationSoftware,Autodesk,EAGLE,9.6.2*%
;CreationDate,2022-08-09T17:26:07Z*%
FMAT,2
ICI,OFF
METRIC,TZ,000.000
T2C0.381
T1C1.016
%
G90
M71
T1
X14478Y135890
X8890Y10160
X8890Y7620
X8890Y5080
X1270Y10160
X1270Y7620
X1270Y5080
X6350Y12700
X3810Y12700
X19558Y10160
X19558Y7620
X19558Y5080
X11938Y10160
X11938Y7620
X11938Y5080
X17018Y12700
X14478Y12700
X30226Y10160
X30226Y7620
X30226Y5080
X22606Y10160
X22606Y7620
X22606Y5080
X27686Y12700
X25146Y12700
X40894Y10160
X40894Y7620
X40894Y5080
X33274Y10160
X33274Y7620
X33274Y5080
X38354Y12700
X35814Y12700
X51562Y10160
X51562Y7620
X51562Y5080
X43942Y10160
X43942Y7620
X43942Y5080
X49022Y12700
X46482Y12700
X62230Y10160
X62230Y7620
X62230Y5080
X54610Y10160
X54610Y7620
X54610Y5080
X59690Y12700
X57150Y12700
X72898Y10160
X72898Y7620
X72898Y5080
X65278Y10160
X65278Y7620
X65278Y5080
X70358Y12700
X67818Y12700
X83566Y10160
X83566Y7620
X83566Y5080
X75946Y10160
X75946Y7620
X75946Y5080
X81026Y12700
X78486Y12700
X8890Y34798
X8890Y32258
X8890Y29718
X1270Y34798
X1270Y32258
X1270Y29718
X6350Y37338
X3810Y37338
X19558Y34798
X19558Y32258
X19558Y29718
X11938Y34798
X11938Y32258
X11938Y29718
X17018Y37338
X14478Y37338
X30226Y34798
X30226Y32258
X30226Y29718
X22606Y34798
X22606Y32258
X22606Y29718
X27686Y37338
X25146Y37338
X40894Y34798
X40894Y32258
X40894Y29718
X33274Y34798
X33274Y32258
X33274Y29718
X38354Y37338
X35814Y37338
X51562Y34798
X51562Y32258
X51562Y29718
X43942Y34798
X43942Y32258
X43942Y29718
X49022Y37338
X46482Y37338
X62230Y34798
X62230Y32258
X62230Y29718
X54610Y34798
X54610Y32258
X54610Y29718
X59690Y37338
X57150Y37338
X72898Y34798
X72898Y32258
X72898Y29718
X65278Y34798
X65278Y32258
X65278Y29718
X70358Y37338
X67818Y37338
X83566Y34798
X83566Y32258
X83566Y29718
X75946Y34798
X75946Y32258
X75946Y29718
X81026Y37338
X78486Y37338
X8890Y59436
X8890Y56896
X8890Y54356
X1270Y59436
X1270Y56896
X1270Y54356
X6350Y61976
X3810Y61976
X19558Y59436
X19558Y56896
X19558Y54356
X11938Y59436
X11938Y56896
X11938Y54356
X17018Y61976
X14478Y61976
X30226Y59436
X30226Y56896
X30226Y54356
X22606Y59436
X22606Y56896
X22606Y54356
X27686Y61976
X25146Y61976
X40894Y59436
X40894Y56896
X40894Y54356
X33274Y59436
X33274Y56896
X33274Y54356
X38354Y61976
X35814Y61976
X51562Y59436
X51562Y56896
X51562Y54356
X43942Y59436
X43942Y56896
X43942Y54356
X49022Y61976
X46482Y61976
X62230Y59436
X62230Y56896
X62230Y54356
X54610Y59436
X54610Y56896
X54610Y54356
X59690Y61976
X57150Y61976
X72898Y59436
X72898Y56896
X72898Y54356
X65278Y59436
X65278Y56896
X65278Y54356
X70358Y61976
X67818Y61976
X83566Y59436
X83566Y56896
X83566Y54356
X75946Y59436
X75946Y56896
X75946Y54356
X81026Y61976
X78486Y61976
X8890Y84074
X8890Y81534
X8890Y78994
X1270Y84074
X1270Y81534
X1270Y78994
X6350Y86614
X3810Y86614
X19558Y84074
X19558Y81534
X19558Y78994
X11938Y84074
X11938Y81534
X11938Y78994
X17018Y86614
X14478Y86614
X30226Y84074
X30226Y81534
X30226Y78994
X22606Y84074
X22606Y81534
X22606Y78994
X27686Y86614
X25146Y86614
X40894Y84074
X40894Y81534
X40894Y78994
X33274Y84074
X33274Y81534
X33274Y78994
X38354Y86614
X35814Y86614
X51562Y84074
X51562Y81534
X51562Y78994
X43942Y84074
X43942Y81534
X43942Y78994
X49022Y86614
X46482Y86614
X62230Y84074
X62230Y81534
X62230Y78994
X54610Y84074
X54610Y81534
X54610Y78994
X59690Y86614
X57150Y86614
X72898Y84074
X72898Y81534
X72898Y78994
X65278Y84074
X65278Y81534
X65278Y78994
X70358Y86614
X67818Y86614
X83566Y84074
X83566Y81534
X83566Y78994
X75946Y84074
X75946Y81534
X75946Y78994
X81026Y86614
X78486Y86614
X8890Y108712
X8890Y106172
X8890Y103632
X1270Y108712
X1270Y106172
X1270Y103632
X6350Y111252
X3810Y111252
X19558Y108712
X19558Y106172
X19558Y103632
X11938Y108712
X11938Y106172
X11938Y103632
X17018Y111252
X14478Y111252
X30226Y108712
X30226Y106172
X30226Y103632
X22606Y108712
X22606Y106172
X22606Y103632
X27686Y111252
X25146Y111252
X40894Y108712
X40894Y106172
X40894Y103632
X33274Y108712
X33274Y106172
X33274Y103632
X38354Y111252
X35814Y111252
X51562Y108712
X51562Y106172
X51562Y103632
X43942Y108712
X43942Y106172
X43942Y103632
X49022Y111252
X46482Y111252
X62230Y108712
X62230Y106172
X62230Y103632
X54610Y108712
X54610Y106172
X54610Y103632
X59690Y111252
X57150Y111252
X72898Y108712
X72898Y106172
X72898Y103632
X65278Y108712
X65278Y106172
X65278Y103632
X70358Y111252
X67818Y111252
X83566Y108712
X83566Y106172
X83566Y103632
X75946Y108712
X75946Y106172
X75946Y103632
X81026Y111252
X78486Y111252
X8890Y133350
X8890Y130810
X8890Y128270
X1270Y133350
X1270Y130810
X1270Y128270
X6350Y135890
X3810Y135890
X19558Y133350
X19558Y130810
X19558Y128270
X11938Y133350
X11938Y130810
X11938Y128270
X17018Y135890
X30226Y133350
X30226Y130810
X30226Y128270
X22606Y133350
X22606Y130810
X22606Y128270
X27686Y135890
X25146Y135890
X40894Y133350
X40894Y130810
X40894Y128270
X33274Y133350
X33274Y130810
X33274Y128270
X38354Y135890
X35814Y135890
X51562Y133350
X51562Y130810
X51562Y128270
X43942Y133350
X43942Y130810
X43942Y128270
X49022Y135890
X46482Y135890
X62230Y133350
X62230Y130810
X62230Y128270
X54610Y133350
X54610Y130810
X54610Y128270
X59690Y135890
X57150Y135890
X72898Y133350
X72898Y130810
X72898Y128270
X65278Y133350
X65278Y130810
X65278Y128270
X70358Y135890
X67818Y135890
X83566Y133350
X83566Y130810
X83566Y128270
X75946Y133350
X75946Y130810
X75946Y128270
X81026Y135890
X78486Y135890
X8890Y157988
X8890Y155448
X8890Y152908
X1270Y157988
X1270Y155448
X1270Y152908
X6350Y160528
X3810Y160528
X19558Y157988
X19558Y155448
X19558Y152908
X11938Y157988
X11938Y155448
X11938Y152908
X17018Y160528
X14478Y160528
X30226Y157988
X30226Y155448
X30226Y152908
X22606Y157988
X22606Y155448
X22606Y152908
X27686Y160528
X25146Y160528
X40894Y157988
X40894Y155448
X40894Y152908
X33274Y157988
X33274Y155448
X33274Y152908
X38354Y160528
X35814Y160528
X51562Y157988
X51562Y155448
X51562Y152908
X43942Y157988
X43942Y155448
X43942Y152908
X49022Y160528
X46482Y160528
X62230Y157988
X62230Y155448
X62230Y152908
X54610Y157988
X54610Y155448
X54610Y152908
X59690Y160528
X57150Y160528
X72898Y157988
X72898Y155448
X72898Y152908
X65278Y157988
X65278Y155448
X65278Y152908
X70358Y160528
X67818Y160528
X83566Y157988
X83566Y155448
X83566Y152908
X75946Y157988
X75946Y155448
X75946Y152908
X81026Y160528
X78486Y160528
X8890Y182626
X8890Y180086
X8890Y177546
X1270Y182626
X1270Y180086
X1270Y177546
X6350Y185166
X3810Y185166
X19558Y182626
X19558Y180086
X19558Y177546
X11938Y182626
X11938Y180086
X11938Y177546
X17018Y185166
X14478Y185166
X30226Y182626
X30226Y180086
X30226Y177546
X22606Y182626
X22606Y180086
X22606Y177546
X27686Y185166
X25146Y185166
X40894Y182626
X40894Y180086
X40894Y177546
X33274Y182626
X33274Y180086
X33274Y177546
X38354Y185166
X35814Y185166
X51562Y182626
X51562Y180086
X51562Y177546
X43942Y182626
X43942Y180086
X43942Y177546
X49022Y185166
X46482Y185166
X62230Y182626
X62230Y180086
X62230Y177546
X54610Y182626
X54610Y180086
X54610Y177546
X59690Y185166
X57150Y185166
X72898Y182626
X72898Y180086
X72898Y177546
X65278Y182626
X65278Y180086
X65278Y177546
X70358Y185166
X67818Y185166
X83566Y182626
X83566Y180086
X83566Y177546
X75946Y182626
X75946Y180086
X75946Y177546
X81026Y185166
X78486Y185166
T2
X47752Y103378
X47752Y101854
X49530Y107823
X45974Y107823
X49022Y101727
X49022Y99187
X55880Y116332
X55880Y102337
X60960Y116332
X60579Y105410
X56896Y107061
X59944Y107061
X54102Y99314
X62865Y102108
X58420Y103378
X58420Y101854
X60198Y107823
X56642Y107823
X59690Y101727
X59690Y99187
X66548Y116332
X66548Y102337
X71628Y116332
X71247Y105410
X67564Y107061
X70612Y107061
X64770Y99314
X73533Y102108
X69088Y103378
X69088Y101854
X70866Y107823
X67310Y107823
X70358Y101727
X70358Y99187
X77216Y116332
X77216Y102337
X82296Y116332
X81915Y105410
X78232Y107061
X81280Y107061
X75438Y99314
X84201Y102108
X79756Y103378
X79756Y101854
X81534Y107823
X77978Y107823
X81026Y101727
X81026Y99187
X2540Y140970
X2540Y126975
X7620Y140970
X7239Y130048
X3556Y131699
X6604Y131699
X762Y123952
X9525Y126746
X5080Y128016
X5080Y126492
X6858Y132461
X3302Y132461
X6350Y126365
X6350Y123825
X13208Y140970
X13208Y126975
X18288Y140970
X17907Y130048
X14224Y131699
X17272Y131699
X11430Y123952
X20193Y126746
X15748Y128016
X15748Y126492
X17526Y132461
X13970Y132461
X17018Y126365
X17018Y123825
X23876Y140970
X23876Y126975
X28956Y140970
X28575Y130048
X24892Y131699
X27940Y131699
X22098Y123952
X30861Y126746
X26416Y128016
X26416Y126492
X28194Y132461
X24638Y132461
X27686Y126365
X27686Y123825
X34544Y140970
X34544Y126975
X39624Y140970
X39243Y130048
X35560Y131699
X38608Y131699
X32766Y123952
X41529Y126746
X37084Y128016
X37084Y126492
X38862Y132461
X35306Y132461
X38354Y126365
X38354Y123825
X45212Y140970
X45212Y126975
X50292Y140970
X49911Y130048
X46228Y131699
X49276Y131699
X43434Y123952
X52197Y126746
X47752Y128016
X47752Y126492
X49530Y132461
X45974Y132461
X49022Y126365
X49022Y123825
X55880Y140970
X55880Y126975
X60960Y140970
X60579Y130048
X56896Y131699
X59944Y131699
X54102Y123952
X62865Y126746
X58420Y128016
X58420Y126492
X60198Y132461
X56642Y132461
X59690Y126365
X59690Y123825
X66548Y140970
X66548Y126975
X71628Y140970
X71247Y130048
X67564Y131699
X70612Y131699
X64770Y123952
X73533Y126746
X69088Y128016
X69088Y126492
X70866Y132461
X67310Y132461
X70358Y126365
X70358Y123825
X77216Y140970
X77216Y126975
X82296Y140970
X81915Y130048
X78232Y131699
X81280Y131699
X75438Y123952
X84201Y126746
X79756Y128016
X79756Y126492
X81534Y132461
X77978Y132461
X81026Y126365
X81026Y123825
X2540Y165608
X2540Y151613
X7620Y165608
X7239Y154686
X3556Y156337
X6604Y156337
X762Y148590
X9525Y151384
X5080Y152654
X5080Y151130
X6858Y157099
X3302Y157099
X6350Y151003
X6350Y148463
X13208Y165608
X13208Y151613
X18288Y165608
X17907Y154686
X14224Y156337
X17272Y156337
X11430Y148590
X20193Y151384
X15748Y152654
X15748Y151130
X17526Y157099
X13970Y157099
X17018Y151003
X17018Y148463
X23876Y165608
X23876Y151613
X28956Y165608
X28575Y154686
X47752Y29464
X27940Y156337
X22098Y148590
X30861Y151384
X26416Y152654
X26416Y151130
X28194Y157099
X24638Y157099
X27686Y151003
X27686Y148463
X34544Y165608
X34544Y151613
X39624Y165608
X39243Y154686
X35560Y156337
X38608Y156337
X32766Y148590
X41529Y151384
X37084Y152654
X37084Y151130
X38862Y157099
X35306Y157099
X38354Y151003
X38354Y148463
X45212Y165608
X45212Y151613
X50292Y165608
X49911Y154686
X46228Y156337
X49276Y156337
X43434Y148590
X52197Y151384
X47752Y152654
X47752Y151130
X49530Y157099
X45974Y157099
X49022Y151003
X49022Y148463
X55880Y165608
X55880Y151613
X60960Y165608
X60579Y154686
X56896Y156337
X59944Y156337
X54102Y148590
X62865Y151384
X58420Y152654
X58420Y151130
X60198Y157099
X56642Y157099
X59690Y151003
X59690Y148463
X66548Y165608
X66548Y151613
X71628Y165608
X71247Y154686
X67564Y156337
X70612Y156337
X64770Y148590
X73533Y151384
X69088Y152654
X69088Y151130
X70866Y157099
X67310Y157099
X70358Y151003
X70358Y148463
X77216Y165608
X77216Y151613
X82296Y165608
X81915Y154686
X78232Y156337
X81280Y156337
X75438Y148590
X84201Y151384
X79756Y152654
X79756Y151130
X81534Y157099
X77978Y157099
X81026Y151003
X81026Y148463
X2540Y190246
X2540Y176251
X7620Y190246
X7239Y179324
X3556Y180975
X6604Y180975
X762Y173228
X9525Y176022
X5080Y177292
X5080Y175768
X6858Y181737
X3302Y181737
X6350Y175641
X6350Y173101
X13208Y190246
X13208Y176251
X18288Y190246
X17907Y179324
X14224Y180975
X17272Y180975
X11430Y173228
X20193Y176022
X15748Y177292
X15748Y175768
X17526Y181737
X13970Y181737
X17018Y175641
X17018Y173101
X23876Y190246
X23876Y176251
X28956Y190246
X28575Y179324
X24892Y180975
X27940Y180975
X22098Y173228
X30861Y176022
X26416Y177292
X26416Y175768
X28194Y181737
X24638Y181737
X27686Y175641
X27686Y173101
X34544Y190246
X34544Y176251
X39624Y190246
X39243Y179324
X35560Y180975
X38608Y180975
X32766Y173228
X41529Y176022
X37084Y177292
X37084Y175768
X38862Y181737
X35306Y181737
X38354Y175641
X38354Y173101
X45212Y190246
X45212Y176251
X50292Y190246
X49911Y179324
X46228Y180975
X49276Y180975
X43434Y173228
X52197Y176022
X47752Y177292
X47752Y175768
X49530Y181737
X45974Y181737
X49022Y175641
X49022Y173101
X55880Y190246
X55880Y176251
X60960Y190246
X60579Y179324
X56896Y180975
X59944Y180975
X54102Y173228
X62865Y176022
X58420Y177292
X58420Y175768
X60198Y181737
X56642Y181737
X59690Y175641
X59690Y173101
X66548Y190246
X66548Y176251
X71628Y190246
X71247Y179324
X67564Y180975
X70612Y180975
X64770Y173228
X73533Y176022
X69088Y177292
X69088Y175768
X70866Y181737
X67310Y181737
X70358Y175641
X70358Y173101
X77216Y190246
X77216Y176251
X82296Y190246
X81915Y179324
X78232Y180975
X81280Y180975
X75438Y173228
X84201Y176022
X79756Y177292
X79756Y175768
X81534Y181737
X77978Y181737
X81026Y175641
X81026Y173101
X2540Y17780
X2540Y3785
X7620Y17780
X7239Y6858
X3556Y8509
X6604Y8509
X762Y762
X9525Y3556
X5080Y4826
X5080Y3302
X6858Y9271
X3302Y9271
X6350Y3175
X6350Y635
X13208Y17780
X13208Y3785
X18288Y17780
X17907Y6858
X14224Y8509
X17272Y8509
X11430Y762
X20193Y3556
X15748Y4826
X15748Y3302
X17526Y9271
X13970Y9271
X17018Y3175
X17018Y635
X23876Y17780
X23876Y3785
X28956Y17780
X28575Y6858
X24892Y8509
X27940Y8509
X22098Y762
X30861Y3556
X26416Y4826
X26416Y3302
X28194Y9271
X24638Y9271
X27686Y3175
X27686Y635
X34544Y17780
X34544Y3785
X39624Y17780
X39243Y6858
X35560Y8509
X38608Y8509
X32766Y762
X41529Y3556
X37084Y4826
X37084Y3302
X38862Y9271
X35306Y9271
X38354Y3175
X38354Y635
X45212Y17780
X45212Y3785
X50292Y17780
X49911Y6858
X46228Y8509
X49276Y8509
X43434Y762
X52197Y3556
X47752Y4826
X47752Y3302
X49530Y9271
X45974Y9271
X49022Y3175
X49022Y635
X55880Y17780
X55880Y3785
X60960Y17780
X60579Y6858
X56896Y8509
X59944Y8509
X54102Y762
X62865Y3556
X58420Y4826
X58420Y3302
X60198Y9271
X56642Y9271
X59690Y3175
X59690Y635
X66548Y17780
X66548Y3785
X71628Y17780
X71247Y6858
X67564Y8509
X70612Y8509
X64770Y762
X73533Y3556
X69088Y4826
X69088Y3302
X70866Y9271
X67310Y9271
X70358Y3175
X70358Y635
X77216Y17780
X77216Y3785
X82296Y17780
X81915Y6858
X78232Y8509
X81280Y8509
X75438Y762
X84201Y3556
X79756Y4826
X79756Y3302
X81534Y9271
X77978Y9271
X81026Y3175
X81026Y635
X2540Y42418
X2540Y28423
X7620Y42418
X7239Y31496
X3556Y33147
X6604Y33147
X762Y25400
X9525Y28194
X5080Y29464
X5080Y27940
X6858Y33909
X3302Y33909
X6350Y27813
X6350Y25273
X13208Y42418
X13208Y28423
X18288Y42418
X17907Y31496
X14224Y33147
X17272Y33147
X11430Y25400
X20193Y28194
X15748Y29464
X15748Y27940
X17526Y33909
X13970Y33909
X17018Y27813
X17018Y25273
X23876Y42418
X23876Y28423
X28956Y42418
X28575Y31496
X24892Y33147
X27940Y33147
X22098Y25400
X30861Y28194
X26416Y29464
X26416Y27940
X28194Y33909
X24638Y33909
X27686Y27813
X27686Y25273
X34544Y42418
X34544Y28423
X39624Y42418
X39243Y31496
X35560Y33147
X38608Y33147
X32766Y25400
X41529Y28194
X37084Y29464
X37084Y27940
X38862Y33909
X35306Y33909
X38354Y27813
X38354Y25273
X45212Y42418
X45212Y28423
X50292Y42418
X49911Y31496
X46228Y33147
X49276Y33147
X43434Y25400
X52197Y28194
X47752Y27940
X49530Y33909
X45974Y33909
X49022Y27813
X49022Y25273
X55880Y42418
X55880Y28423
X60960Y42418
X60579Y31496
X56896Y33147
X59944Y33147
X54102Y25400
X62865Y28194
X58420Y29464
X58420Y27940
X60198Y33909
X56642Y33909
X59690Y27813
X59690Y25273
X66548Y42418
X66548Y28423
X71628Y42418
X71247Y31496
X67564Y33147
X70612Y33147
X64770Y25400
X73533Y28194
X69088Y29464
X69088Y27940
X70866Y33909
X67310Y33909
X70358Y27813
X70358Y25273
X77216Y42418
X77216Y28423
X82296Y42418
X81915Y31496
X78232Y33147
X81280Y33147
X75438Y25400
X84201Y28194
X79756Y29464
X79756Y27940
X81534Y33909
X77978Y33909
X81026Y27813
X81026Y25273
X2540Y67056
X2540Y53061
X7620Y67056
X7239Y56134
X3556Y57785
X6604Y57785
X762Y50038
X9525Y52832
X5080Y54102
X5080Y52578
X6858Y58547
X3302Y58547
X6350Y52451
X6350Y49911
X13208Y67056
X13208Y53061
X18288Y67056
X17907Y56134
X14224Y57785
X17272Y57785
X11430Y50038
X20193Y52832
X15748Y54102
X15748Y52578
X17526Y58547
X13970Y58547
X17018Y52451
X17018Y49911
X23876Y67056
X23876Y53061
X28956Y67056
X28575Y56134
X24892Y57785
X27940Y57785
X22098Y50038
X30861Y52832
X26416Y54102
X26416Y52578
X28194Y58547
X24638Y58547
X27686Y52451
X27686Y49911
X34544Y67056
X34544Y53061
X39624Y67056
X39243Y56134
X35560Y57785
X38608Y57785
X32766Y50038
X41529Y52832
X37084Y54102
X37084Y52578
X38862Y58547
X35306Y58547
X38354Y52451
X38354Y49911
X45212Y67056
X45212Y53061
X50292Y67056
X49911Y56134
X46228Y57785
X49276Y57785
X43434Y50038
X52197Y52832
X47752Y54102
X47752Y52578
X49530Y58547
X45974Y58547
X49022Y52451
X49022Y49911
X55880Y67056
X55880Y53061
X60960Y67056
X60579Y56134
X56896Y57785
X59944Y57785
X54102Y50038
X62865Y52832
X58420Y54102
X58420Y52578
X60198Y58547
X56642Y58547
X59690Y52451
X59690Y49911
X66548Y67056
X66548Y53061
X71628Y67056
X71247Y56134
X67564Y57785
X70612Y57785
X64770Y50038
X73533Y52832
X69088Y54102
X69088Y52578
X70866Y58547
X67310Y58547
X70358Y52451
X70358Y49911
X77216Y67056
X77216Y53061
X82296Y67056
X81915Y56134
X78232Y57785
X81280Y57785
X75438Y50038
X84201Y52832
X79756Y54102
X79756Y52578
X81534Y58547
X77978Y58547
X81026Y52451
X81026Y49911
X24892Y156337
X2540Y91694
X2540Y77699
X7620Y91694
X7239Y80772
X3556Y82423
X6604Y82423
X762Y74676
X9525Y77470
X5080Y78740
X5080Y77216
X6858Y83185
X3302Y83185
X6350Y77089
X6350Y74549
X13208Y91694
X13208Y77699
X18288Y91694
X17907Y80772
X14224Y82423
X17272Y82423
X11430Y74676
X20193Y77470
X15748Y78740
X15748Y77216
X17526Y83185
X13970Y83185
X17018Y77089
X17018Y74549
X23876Y91694
X23876Y77699
X28956Y91694
X28575Y80772
X24892Y82423
X27940Y82423
X22098Y74676
X30861Y77470
X26416Y78740
X26416Y77216
X28194Y83185
X24638Y83185
X27686Y77089
X27686Y74549
X34544Y91694
X34544Y77699
X39624Y91694
X39243Y80772
X35560Y82423
X38608Y82423
X32766Y74676
X41529Y77470
X37084Y78740
X37084Y77216
X38862Y83185
X35306Y83185
X38354Y77089
X38354Y74549
X45212Y91694
X45212Y77699
X50292Y91694
X49911Y80772
X46228Y82423
X49276Y82423
X43434Y74676
X52197Y77470
X47752Y78740
X47752Y77216
X49530Y83185
X45974Y83185
X49022Y77089
X49022Y74549
X55880Y91694
X55880Y77699
X60960Y91694
X60579Y80772
X56896Y82423
X59944Y82423
X54102Y74676
X62865Y77470
X58420Y78740
X58420Y77216
X60198Y83185
X56642Y83185
X59690Y77089
X59690Y74549
X66548Y91694
X66548Y77699
X71628Y91694
X71247Y80772
X67564Y82423
X70612Y82423
X64770Y74676
X73533Y77470
X69088Y78740
X69088Y77216
X70866Y83185
X67310Y83185
X70358Y77089
X70358Y74549
X77216Y91694
X77216Y77699
X82296Y91694
X81915Y80772
X78232Y82423
X81280Y82423
X75438Y74676
X84201Y77470
X79756Y78740
X79756Y77216
X81534Y83185
X77978Y83185
X81026Y77089
X81026Y74549
X2540Y116332
X2540Y102337
X7620Y116332
X7239Y105410
X3556Y107061
X6604Y107061
X762Y99314
X9525Y102108
X5080Y103378
X5080Y101854
X6858Y107823
X3302Y107823
X6350Y101727
X6350Y99187
X13208Y116332
X13208Y102337
X18288Y116332
X17907Y105410
X14224Y107061
X17272Y107061
X11430Y99314
X20193Y102108
X15748Y103378
X15748Y101854
X17526Y107823
X13970Y107823
X17018Y101727
X17018Y99187
X23876Y116332
X23876Y102337
X28956Y116332
X28575Y105410
X24892Y107061
X27940Y107061
X22098Y99314
X30861Y102108
X26416Y103378
X26416Y101854
X28194Y107823
X24638Y107823
X27686Y101727
X27686Y99187
X34544Y116332
X34544Y102337
X39624Y116332
X39243Y105410
X35560Y107061
X38608Y107061
X32766Y99314
X41529Y102108
X37084Y103378
X37084Y101854
X38862Y107823
X35306Y107823
X38354Y101727
X38354Y99187
X45212Y116332
X45212Y102337
X50292Y116332
X49911Y105410
X46228Y107061
X49276Y107061
X43434Y99314
X52197Y102108
M30